<svg width="11" height="7" viewBox="0 0 11 7" fill="none" xmlns="http://www.w3.org/2000/svg">
<path d="M5.50319 5.85339L5.50311 5.85339C5.28022 5.85245 5.06663 5.764 4.90833 5.60711C4.90826 5.60703 4.90818 5.60696 4.90811 5.60689L0.908541 1.60732L0.908429 1.60721C0.748285 1.4474 0.658183 1.23052 0.657944 1.00429C0.657704 0.778048 0.747348 0.560982 0.907153 0.400838C1.06696 0.240695 1.28383 0.150593 1.51007 0.150353C1.62209 0.150235 1.73304 0.172182 1.83658 0.214941C1.94002 0.25766 2.03405 0.320316 2.1133 0.399338C2.11337 0.399413 2.11345 0.399488 2.11352 0.399563L5.39614 3.69918L5.50235 3.80594L5.60869 3.69931L8.89947 0.399525C8.8995 0.399491 8.89954 0.399456 8.89957 0.399421C8.97885 0.320282 9.07293 0.257525 9.17645 0.21473C9.28002 0.171916 9.39101 0.149921 9.50308 0.15C9.61514 0.150079 9.7261 0.172231 9.82961 0.21519C9.93311 0.25815 10.0271 0.321076 10.1063 0.400376C10.1855 0.479676 10.2483 0.573797 10.2911 0.677364C10.3339 0.780932 10.3559 0.891918 10.3559 1.00399C10.3558 1.11605 10.3336 1.22701 10.2907 1.33052C10.2477 1.43402 10.1848 1.52806 10.1055 1.60724L10.1054 1.60732L6.10584 5.60689C6.10575 5.60698 6.10566 5.60707 6.10557 5.60716C6.0263 5.68571 5.93234 5.74788 5.82906 5.79013C5.72565 5.83242 5.61492 5.85392 5.50319 5.85339Z" fill="#1E1E1E" stroke="white" stroke-width="0.3"/>
</svg>
